<?xml version="1.0" standalone="no"?>
<!DOCTYPE svg PUBLIC "-//W3C//DTD SVG 20010904//EN"
 "http://www.w3.org/TR/2001/REC-SVG-20010904/DTD/svg10.dtd">
<svg version="1.0" xmlns="http://www.w3.org/2000/svg"
 width="117.000000pt" height="117.000000pt" viewBox="0 0 117.000000 117.000000"
 preserveAspectRatio="xMidYMid meet">
<metadata>
Created by potrace 1.11, written by Peter Selinger 2001-2013
</metadata>
<g transform="translate(0.000000,117.000000) scale(0.100000,-0.100000)"
fill="#000000" stroke="none">
<path d="M232 1157 c-62 -36 -73 -117 -23 -168 23 -22 39 -29 70 -29 l40 0 60
-112 60 -112 -43 -47 c-23 -26 -48 -65 -54 -87 l-12 -40 -58 3 c-31 2 -64 4
-73 4 -9 1 -20 12 -23 26 -8 30 -47 58 -82 58 -60 0 -102 -53 -89 -111 8 -39
34 -61 78 -69 32 -5 41 -1 70 28 32 32 38 34 93 32 77 -4 84 -7 84 -40 1 -39
36 -112 73 -151 l31 -32 -54 -55 c-49 -50 -58 -55 -85 -49 -50 12 -78 5 -108
-24 -85 -86 10 -221 119 -169 52 25 70 76 49 142 -4 15 8 34 54 79 58 57 61
59 89 47 16 -7 55 -12 87 -12 105 0 201 67 236 164 l14 39 50 -7 c27 -4 56 -8
63 -8 7 0 20 -14 29 -31 22 -42 42 -55 83 -55 59 0 97 46 86 104 -9 45 -37 67
-87 69 -33 1 -45 -5 -65 -27 -23 -26 -27 -28 -81 -21 -32 3 -61 8 -64 10 -4 2
-12 29 -18 61 -24 121 -129 207 -251 206 -31 0 -67 -6 -79 -13 -13 -6 -27 -8
-31 -3 -4 4 -33 54 -63 111 l-56 103 19 32 c28 46 26 90 -7 127 -32 36 -94 49
-131 27z m97 -75 c25 -48 -42 -93 -81 -54 -15 15 -19 27 -14 47 12 46 72 51
95 7z m348 -438 c94 -72 77 -217 -31 -265 -23 -10 -50 -16 -61 -14 -11 2 -30
4 -42 4 -27 1 -79 44 -98 81 -31 60 -23 122 24 174 55 61 144 69 208 20z
m-534 -63 c13 -51 -46 -90 -84 -55 -43 39 3 106 57 82 12 -6 24 -18 27 -27z
m945 -93 c33 -33 -6 -91 -47 -69 -27 15 -32 35 -15 60 17 23 44 27 62 9z
m-794 -344 c37 -37 -1 -101 -51 -88 -38 10 -47 67 -15 92 22 16 47 15 66 -4z"/>
</g>
</svg>
